{"title":"Finding.Bigfoot.S01E03.Caught.on.Tape.HDTV.XviD-tNe.avi","uid":6465346,"size":365373440,"categoryP":"video","categoryS":"tv_shows","magnet":"?xt=urn:btih:991a0248df98d9fbec76b029d36a55ef680b9ad0&amp;dn=Finding.Bigfoot.S01E03.Caught.on.Tape.HDTV.XviD-tNe.avi&amp;tr=udp%3A%2F%2Ftracker.openbittorrent.com%3A80&amp;tr=udp%3A%2F%2Fopen.demonii.com%3A1337&amp;tr=udp%3A%2F%2Ftracker.coppersurfer.tk%3A6969&amp;tr=udp%3A%2F%2Fexodus.desync.com%3A6969","seeders":1,"leechers":1,"uploader":"trialNerror","files":1,"time":1307946484,"description":"Format                           : AVI\nFormat/Info                      : Audio Video Interleave\nFile size                        : 348 MiB\nDuration                         : 43mn 18s\nOverall bit rate                 : 1 125 Kbps\nWriting application              : VirtualDubMod 1.5.10.2 (build 2542/release)\nWriting library                  : VirtualDubMod build 2542/release\n\nVideo\nID                               : 0\nFormat                           : MPEG-4 Visual\nFormat profile                   : Advanced Simple@L5\nFormat settings, BVOP            : Yes\nFormat settings, QPel            : No\nFormat settings, GMC             : No warppoints\nFormat settings, Matrix          : Default (H.263)\nMuxing mode                      : Packed bitstream\nCodec ID                         : XVID\nCodec ID/Hint                    : XviD\nDuration                         : 43mn 18s\nBit rate                         : 983 Kbps\nWidth                            : 624 pixels\nHeight                           : 352 pixels\nDisplay aspect ratio             : 16:9\nFrame rate                       : 29.970 fps\nColor space                      : YUV\nChroma subsampling               : 4:2:0\nBit depth                        : 8 bits\nScan type                        : Progressive\nBits/(Pixel*Frame)               : 0.149\nStream size                      : 304 MiB (87%)\nWriting library                  : XviD 58\n\nAudio\nID                               : 1\nFormat                           : MPEG Audio\nFormat version                   : Version 1\nFormat profile                   : Layer 3\nMode                             : Joint stereo\nMode extension                   : MS Stereo\nCodec ID                         : 55\nCodec ID/Hint                    : MP3\nDuration                         : 43mn 18s\nBit rate mode                    : Variable\nBit rate                         : 128 Kbps\nChannel(s)                       : 2 channels\nSampling rate                    : 48.0 KHz\nStream size                      : 39.7 MiB (11%)\nAlignment                        : Aligned on interleaves\nInterleave, duration             : 24 ms (0.72 video frame)\nInterleave, preload duration     : 509 ms","torrent":{"xt":"urn:btih:991a0248df98d9fbec76b029d36a55ef680b9ad0","amp;dn":"Finding.Bigfoot.S01E03.Caught.on.Tape.HDTV.XviD-tNe.avi","amp;tr":["udp%3A%2F%2Ftracker.openbittorrent.com%3A80","udp%3A%2F%2Fopen.demonii.com%3A1337","udp%3A%2F%2Ftracker.coppersurfer.tk%3A6969","udp%3A%2F%2Fexodus.desync.com%3A6969"],"infoHash":"991a0248df98d9fbec76b029d36a55ef680b9ad0","infoHashBuffer":{"type":"Buffer","data":[153,26,2,72,223,152,217,251,236,118,176,41,211,106,85,239,104,11,154,208]},"announce":[],"urlList":[]}}